
<svg xmlns="http://www.w3.org/2000/svg">
    <symbol aria-hidden="true" data-prefix="fas" data-icon="angle-double-right"
            class="svg-inline--fa fa-angle-double-right fa-w-14" role="img" xmlns="http://www.w3.org/2000/svg"
            viewBox="0 0 448 512"
            id="next">
        <path fill="currentColor"
              d="M224.3 273l-136 136c-9.4 9.4-24.6 9.4-33.9 0l-22.6-22.6c-9.4-9.4-9.4-24.6 0-33.9l96.4-96.4-96.4-96.4c-9.4-9.4-9.4-24.6 0-33.9L54.3 103c9.4-9.4 24.6-9.4 33.9 0l136 136c9.5 9.4 9.5 24.6.1 34zm192-34l-136-136c-9.4-9.4-24.6-9.4-33.9 0l-22.6 22.6c-9.4 9.4-9.4 24.6 0 33.9l96.4 96.4-96.4 96.4c-9.4 9.4-9.4 24.6 0 33.9l22.6 22.6c9.4 9.4 24.6 9.4 33.9 0l136-136c9.4-9.2 9.4-24.4 0-33.8z"></path>
    </symbol>
    <symbol aria-hidden="true" data-prefix="fas" data-icon="search" class="svg-inline--fa fa-search fa-w-16" role="img"
         xmlns="http://www.w3.org/2000/svg"
         viewBox="0 0 512 512"
         id="search">
        <path fill="currentColor"
              d="M505 442.7L405.3 343c-4.5-4.5-10.6-7-17-7H372c27.6-35.3 44-79.7 44-128C416 93.1 322.9 0 208 0S0 93.1 0 208s93.1 208 208 208c48.3 0 92.7-16.4 128-44v16.3c0 6.4 2.5 12.5 7 17l99.7 99.7c9.4 9.4 24.6 9.4 33.9 0l28.3-28.3c9.4-9.4 9.4-24.6.1-34zM208 336c-70.7 0-128-57.2-128-128 0-70.7 57.2-128 128-128 70.7 0 128 57.2 128 128 0 70.7-57.2 128-128 128z"></path>
    </symbol>
</svg>

